<svg width="34" height="34" viewBox="0 0 29 29" fill="none" xmlns="http://www.w3.org/2000/svg">
<path d="M14.5 12.6875C15.501 12.6875 16.3125 11.876 16.3125 10.875C16.3125 9.87398 15.501 9.0625 14.5 9.0625C13.499 9.0625 12.6875 9.87398 12.6875 10.875C12.6875 11.876 13.499 12.6875 14.5 12.6875Z" stroke="rgb(55, 65, 81)" stroke-linecap="round"/>
<path d="M18.9719 9.96875C19.2123 9.55245 19.6081 9.24868 20.0725 9.12426C20.5367 8.99985 21.0315 9.06498 21.4478 9.30533C21.8641 9.54568 22.1678 9.94157 22.2923 10.4059C22.4168 10.8702 22.3516 11.3649 22.1112 11.7813C21.8708 12.1975 21.475 12.5013 21.0106 12.6258C20.5464 12.7502 20.0516 12.6851 19.6353 12.4446C19.219 12.2043 18.9153 11.8084 18.7908 11.3441C18.6663 10.8798 18.7315 10.3851 18.9719 9.96875Z" stroke="rgb(55, 65, 81)"/>
<path d="M6.88858 9.96875C7.12893 9.55245 7.52482 9.24868 7.98914 9.12426C8.45347 8.99985 8.9482 9.06498 9.36451 9.30533C9.78081 9.54568 10.0846 9.94157 10.209 10.4059C10.3334 10.8702 10.2683 11.3649 10.0279 11.7813C9.78758 12.1975 9.39169 12.5013 8.92737 12.6258C8.46304 12.7502 7.96831 12.6851 7.55201 12.4446C7.1357 12.2043 6.83194 11.8084 6.70751 11.3441C6.5831 10.8798 6.64823 10.3851 6.88858 9.96875Z" stroke="rgb(55, 65, 81)"/>
<path d="M17.0375 15.9324L16.6863 15.4408L16.043 15.9003L16.6555 16.4003L17.0375 15.9324ZM23.5624 19.3333H17.5209V20.5417H23.5624V19.3333ZM24.0188 18.8848C24.0473 19.0036 24.0165 19.0999 23.9455 19.1783C23.8679 19.2637 23.7332 19.3333 23.5624 19.3333V20.5417C24.5287 20.5417 25.4607 19.7165 25.1939 18.6031L24.0188 18.8848ZM19.9375 15.7083C21.419 15.7083 22.3415 16.2022 22.9369 16.8101C23.5485 17.4346 23.8616 18.2288 24.0188 18.8848L25.1939 18.6031C25.0081 17.8279 24.6203 16.8021 23.8001 15.9646C22.9636 15.1103 21.7232 14.5 19.9375 14.5V15.7083ZM17.3887 16.4239C17.9662 16.0114 18.7775 15.7083 19.9375 15.7083V14.5C18.5533 14.5 17.4901 14.8666 16.6863 15.4408L17.3887 16.4239ZM16.6555 16.4003C17.4445 17.0446 17.8209 18.0448 17.9935 18.8651L19.1759 18.6166C18.981 17.6898 18.5237 16.3658 17.4196 15.4644L16.6555 16.4003ZM17.9935 18.8651C18.0196 18.9896 17.9852 19.0929 17.9094 19.1755C17.828 19.2641 17.6913 19.3333 17.5209 19.3333V20.5417C18.4921 20.5417 19.4077 19.7193 19.1759 18.6166L17.9935 18.8651Z" fill="rgb(55, 65, 81)"/>
<path d="M11.9624 15.9324L12.3445 16.4003L12.957 15.9003L12.3137 15.4407L11.9624 15.9324ZM9.06247 15.7083C10.2224 15.7083 11.0338 16.0114 11.6112 16.4239L12.3137 15.4407C11.5099 14.8665 10.4467 14.5 9.06247 14.5V15.7083ZM4.98112 18.8848C5.13835 18.2288 5.4515 17.4346 6.06314 16.8101C6.65842 16.2022 7.58102 15.7083 9.06247 15.7083V14.5C7.27679 14.5 6.03646 15.1103 5.19986 15.9646C4.3796 16.8021 3.99188 17.8279 3.80607 18.6031L4.98112 18.8848ZM5.43749 19.3333C5.26681 19.3333 5.13207 19.2637 5.05453 19.1783C4.98348 19.0999 4.95263 19.0036 4.98112 18.8848L3.80607 18.6031C3.53921 19.7165 4.47125 20.5417 5.43749 20.5417V19.3333ZM11.4791 19.3333H5.43749V20.5417H11.4791V19.3333ZM11.4791 19.3333C11.3087 19.3333 11.1719 19.2641 11.0905 19.1755C11.0147 19.0929 10.9804 18.9896 11.0065 18.8651L9.82404 18.6166C9.59227 19.7193 10.5077 20.5417 11.4791 20.5417V19.3333ZM11.0065 18.8651C11.179 18.0448 11.5554 17.0446 12.3445 16.4003L11.5803 15.4644C10.4762 16.3658 10.0189 17.6898 9.82404 18.6166L11.0065 18.8651Z" fill="rgb(55, 65, 81)"/>
<path d="M14.5001 15.1042C17.3569 15.1042 18.2839 17.3096 18.5848 18.741C18.722 19.394 18.1883 19.9376 17.5209 19.9376H11.4793C10.8119 19.9376 10.2782 19.394 10.4155 18.741C10.7163 17.3096 11.6434 15.1042 14.5001 15.1042Z" stroke="rgb(55, 65, 81)" stroke-linecap="round"/>
<path d="M22.3542 25.9792H24.1667C25.1677 25.9792 25.9792 25.1677 25.9792 24.1667V22.3542" stroke="rgb(55, 65, 81)" stroke-linecap="round"/>
<path d="M22.3542 3.02075H24.1667C25.1677 3.02075 25.9792 3.83223 25.9792 4.83325V6.64575" stroke="rgb(55, 65, 81)" stroke-linecap="round"/>
<path d="M6.64575 25.9792H4.83325C3.83223 25.9792 3.02075 25.1677 3.02075 24.1667V22.3542" stroke="rgb(55, 65, 81)" stroke-linecap="round"/>
<path d="M6.64575 3.02075H4.83325C3.83223 3.02075 3.02075 3.83223 3.02075 4.83325V6.64575" stroke="rgb(55, 65, 81)" stroke-linecap="round"/>
</svg>
