<svg width="34" height="34" viewBox="0 0 25 25" fill="none" xmlns="http://www.w3.org/2000/svg">
<path d="M8.33331 19.717C9.60014 20.4484 11.0372 20.8334 12.5 20.8334C13.9628 20.8334 15.3998 20.4484 16.6666 19.717C17.9335 18.9856 18.9855 17.9336 19.7169 16.6667C20.4483 15.3999 20.8333 13.9629 20.8333 12.5001C20.8333 11.0373 20.4483 9.60024 19.7169 8.33341C18.9855 7.06659 17.9335 6.01461 16.6666 5.2832C15.3998 4.5518 13.9628 4.16675 12.5 4.16675C11.0372 4.16675 9.60014 4.5518 8.33331 5.2832" stroke="rgb(55, 65, 81)" stroke-width="2"/>
<path d="M2.08331 12.5001L1.30244 11.8754L0.802688 12.5001L1.30244 13.1248L2.08331 12.5001ZM11.4583 13.5001C12.0106 13.5001 12.4583 13.0524 12.4583 12.5001C12.4583 11.9478 12.0106 11.5001 11.4583 11.5001V13.5001ZM5.46911 6.66705L1.30244 11.8754L2.86418 13.1248L7.03085 7.91644L5.46911 6.66705ZM1.30244 13.1248L5.46911 18.3331L7.03085 17.0837L2.86418 11.8754L1.30244 13.1248ZM2.08331 13.5001H11.4583V11.5001H2.08331V13.5001Z" fill="rgb(55, 65, 81)"/>
</svg>
