<svg xmlns="http://www.w3.org/2000/svg" width="34" height="34" viewBox="0 0 34 34" fill="none">
  <path d="M16.9999 14.8751C18.9559 14.8751 20.5416 13.2894 20.5416 11.3334C20.5416 9.37741 18.9559 7.79175 16.9999 7.79175C15.0439 7.79175 13.4583 9.37741 13.4583 11.3334C13.4583 13.2894 15.0439 14.8751 16.9999 14.8751Z" stroke="#B9B9B9" stroke-linecap="round"/>
  <path d="M19.5046 9.20842C19.7849 8.72311 20.2028 8.3318 20.7053 8.08394C21.2079 7.83609 21.7727 7.74285 22.3283 7.81599C22.8838 7.88913 23.4053 8.12539 23.8266 8.49487C24.2479 8.86435 24.5502 9.35048 24.6953 9.89176C24.8402 10.4331 24.8215 11.0052 24.6415 11.5358C24.4613 12.0665 24.1278 12.5318 23.6832 12.8729C23.2387 13.2141 22.7029 13.4157 22.1437 13.4524C21.5846 13.489 21.0271 13.359 20.5418 13.0788" stroke="#B9B9B9"/>
  <path d="M14.4954 9.20842C14.2152 8.72311 13.7973 8.3318 13.2947 8.08394C12.7921 7.83609 12.2274 7.74285 11.6718 7.81599C11.1162 7.88913 10.5948 8.12539 10.1734 8.49487C9.75212 8.86435 9.44984 9.35048 9.3048 9.89176C9.15976 10.4331 9.17849 11.0052 9.35862 11.5358C9.53875 12.0665 9.87219 12.5318 10.3168 12.8729C10.7613 13.2141 11.2971 13.4157 11.8563 13.4524C12.4155 13.489 12.9729 13.359 13.4583 13.0788" stroke="#B9B9B9"/>
  <path d="M16.9999 17.7083C22.7802 17.7083 24.2724 22.3864 24.6575 24.8015C24.7808 25.5742 24.1573 26.2083 23.3749 26.2083H10.6249C9.84248 26.2083 9.21904 25.5742 9.34226 24.8015C9.72742 22.3864 11.2196 17.7083 16.9999 17.7083Z" stroke="#B9B9B9" stroke-linecap="round"/>
  <path d="M18.54 17.8299L18.017 17.3524L17.1379 18.315L18.4238 18.5286L18.54 17.8299ZM24.3401 23.3749L23.6597 23.5718L23.8077 24.0833H24.3401V23.3749ZM21.9583 16.9999C23.4142 16.9999 24.4367 17.7121 25.1859 18.7097C25.95 19.7274 26.3987 21.0099 26.6496 22.0117L28.0239 21.6676C27.753 20.5862 27.2466 19.0947 26.3188 17.8591C25.3761 16.6037 23.9702 15.5833 21.9583 15.5833V16.9999ZM19.063 18.3075C19.7719 17.5312 20.6984 16.9999 21.9583 16.9999V15.5833C20.2339 15.5833 18.9459 16.3349 18.017 17.3524L19.063 18.3075ZM18.4238 18.5286C21.6829 19.0702 23.0617 21.5051 23.6597 23.5718L25.0206 23.178C24.3532 20.8711 22.6935 17.8022 18.6562 17.1312L18.4238 18.5286ZM26.0595 22.6666H24.3401V24.0833H26.0595V22.6666ZM26.6496 22.0117C26.7258 22.3161 26.5022 22.6666 26.0595 22.6666V24.0833C27.293 24.0833 28.3548 22.9892 28.0239 21.6676L26.6496 22.0117Z" fill="#B9B9B9"/>
  <path d="M15.4599 17.8299L15.576 18.5286L16.862 18.315L15.9829 17.3524L15.4599 17.8299ZM9.65973 23.3749V24.0833H10.1922L10.3402 23.5718L9.65973 23.3749ZM12.0416 16.9999C13.3015 16.9999 14.2279 17.5312 14.9367 18.3075L15.9829 17.3524C15.054 16.3349 13.766 15.5833 12.0416 15.5833V16.9999ZM7.35024 22.0117C7.60112 21.0099 8.04983 19.7274 8.81397 18.7097C9.56312 17.7121 10.5856 16.9999 12.0416 16.9999V15.5833C10.0297 15.5833 8.6238 16.6037 7.68109 17.8591C6.75337 19.0947 6.2468 20.5862 5.97602 21.6676L7.35024 22.0117ZM7.94033 22.6666C7.4976 22.6666 7.27402 22.3161 7.35024 22.0117L5.97602 21.6676C5.64503 22.9892 6.70678 24.0833 7.94033 24.0833V22.6666ZM9.65973 22.6666H7.94033V24.0833H9.65973V22.6666ZM10.3402 23.5718C10.9381 21.5051 12.3169 19.0702 15.576 18.5286L15.3437 17.1312C11.3064 17.8022 9.64673 20.8711 8.97931 23.178L10.3402 23.5718Z" fill="#B9B9B9"/>
</svg>